<svg width="21" height="20" viewBox="0 0 21 20" fill="none" xmlns="http://www.w3.org/2000/svg">
<g id="Frame">
<path id="Vector" d="M14.2265 16.6668H3.9165C3.7839 16.6668 3.65672 16.6141 3.56295 16.5203C3.46918 16.4265 3.4165 16.2994 3.4165 16.1668V8.00009C3.4165 7.86748 3.46918 7.7403 3.56295 7.64653C3.65672 7.55277 3.7839 7.50009 3.9165 7.50009H6.22317C6.51098 7.50009 6.79389 7.42556 7.04434 7.28376C7.29479 7.14196 7.50426 6.93772 7.65234 6.69092L9.91067 2.92675C10.081 2.64246 10.3493 2.4302 10.6652 2.32988C10.981 2.22956 11.3227 2.2481 11.6258 2.38201C11.929 2.51593 12.1727 2.75598 12.3113 3.05704C12.4498 3.35809 12.4736 3.69939 12.3782 4.01675L11.5265 6.85675C11.5042 6.93134 11.4996 7.01012 11.5131 7.0868C11.5266 7.16348 11.5578 7.23594 11.6043 7.29842C11.6507 7.3609 11.7111 7.41167 11.7807 7.44668C11.8502 7.48169 11.927 7.49998 12.0048 7.50009H15.8173C16.0736 7.50003 16.3265 7.55909 16.5562 7.67265C16.786 7.78622 16.9864 7.95124 17.142 8.15488C17.2976 8.35853 17.4042 8.59531 17.4534 8.84683C17.5025 9.09835 17.4931 9.35783 17.4257 9.60509L15.834 15.4384C15.7379 15.791 15.5286 16.1022 15.2383 16.3241C14.948 16.5461 14.5919 16.6665 14.2265 16.6668Z" stroke="white" stroke-width="1.5" stroke-linecap="round"/>
<path id="Vector_2" d="M6.3335 16.6667V7.5" stroke="white" stroke-width="1.5" stroke-linecap="round" stroke-linejoin="round"/>
</g>
</svg>
