<svg width="21" height="20" viewBox="0 0 21 20" fill="none" xmlns="http://www.w3.org/2000/svg">
<g id="Frame">
<path id="Vector" fill-rule="evenodd" clip-rule="evenodd" d="M18.61 5.67711C18.7282 5.28684 18.61 5 18.0475 5H16.1877C15.7148 5 15.4969 5.24776 15.3787 5.52105C15.3787 5.52105 14.4328 7.80434 13.093 9.2875C12.6595 9.71684 12.4625 9.85329 12.226 9.85329C12.1078 9.85329 11.9367 9.71684 11.9367 9.32658V5.67711C11.9367 5.20868 11.7995 5 11.4053 5H8.48276C8.18732 5 8.00958 5.21737 8.00958 5.42342C8.00958 5.8675 8.67937 5.96987 8.74845 7.21882V9.93158C8.74845 10.5263 8.64005 10.6342 8.40359 10.6342C7.77311 10.6342 6.23957 8.34053 5.32986 5.71618C5.15158 5.20605 4.97277 5 4.49746 5H2.63765C2.10627 5 2 5.24776 2 5.52105C2 6.00895 2.63061 8.42895 4.93584 11.6295C6.47284 13.815 8.63792 15 10.6083 15C11.7906 15 11.9367 14.7368 11.9367 14.2836V12.6316C11.9367 12.1053 12.0487 12.0003 12.4229 12.0003C12.699 12.0003 13.1717 12.1368 14.2753 13.1907C15.5362 14.4395 15.744 15 16.4534 15H18.3132C18.8446 15 19.1102 14.7368 18.9569 14.2175C18.7893 13.6999 18.1872 12.9491 17.3883 12.0588C16.9549 11.5513 16.3046 11.0049 16.1077 10.7317C15.8318 10.3804 15.9106 10.2243 16.1077 9.91224C16.1077 9.91224 18.3735 6.75066 18.61 5.67724V5.67711Z" stroke="#4F8CF6" stroke-width="1.5"/>
</g>
</svg>
