<svg width="16" height="16" viewBox="0 0 16 16" fill="none" xmlns="http://www.w3.org/2000/svg">
<g id="Frame">
<path id="Vector" d="M2 8.6665C4.4 3.33317 11.6 3.33317 14 8.6665M8 11.3332C7.73736 11.3332 7.47728 11.2814 7.23463 11.1809C6.99198 11.0804 6.7715 10.9331 6.58579 10.7474C6.40007 10.5617 6.25275 10.3412 6.15224 10.0985C6.05173 9.85589 6 9.59581 6 9.33317C6 9.07053 6.05173 8.81045 6.15224 8.5678C6.25275 8.32515 6.40007 8.10467 6.58579 7.91896C6.7715 7.73324 6.99198 7.58592 7.23463 7.48541C7.47728 7.3849 7.73736 7.33317 8 7.33317C8.53043 7.33317 9.03914 7.54388 9.41421 7.91896C9.78929 8.29403 10 8.80274 10 9.33317C10 9.8636 9.78929 10.3723 9.41421 10.7474C9.03914 11.1225 8.53043 11.3332 8 11.3332Z" stroke="#333333" stroke-linecap="round" stroke-linejoin="round"/>
</g>
</svg>
