<svg width="16" height="16" viewBox="0 0 16 16" fill="none" xmlns="http://www.w3.org/2000/svg">
<g id="Frame">
<path id="Vector" d="M14.6667 5.908C14.669 6.93383 14.2738 7.92067 13.564 8.66133C11.9367 10.3487 10.358 12.108 8.67066 13.7333C8.28333 14.1 7.66933 14.0867 7.29933 13.7033L2.436 8.662C0.965996 7.138 0.965996 4.678 2.436 3.15467C2.78342 2.79 3.20129 2.49968 3.66426 2.30132C4.12722 2.10295 4.62565 2.00067 5.12933 2.00067C5.633 2.00067 6.13143 2.10295 6.5944 2.30132C7.05737 2.49968 7.47524 2.79 7.82266 3.15467L8 3.33733L8.17666 3.15467C8.52479 2.79086 8.94278 2.50108 9.40558 2.30267C9.86838 2.10426 10.3665 2.00132 10.87 2C11.8833 2 12.852 2.416 13.5633 3.15467C14.2733 3.89523 14.6688 4.88207 14.6667 5.908Z" stroke="#333333" stroke-linejoin="round"/>
</g>
</svg>
