<svg width="219" height="182" viewBox="0 0 219 182" fill="none" xmlns="http://www.w3.org/2000/svg">
<g id="Keep it">
<g id="Ellipse" filter="url(#filter0_d_2188_549)">
<ellipse cx="109.768" cy="174.956" rx="79.7731" ry="0.630341" fill="#C4C4C4" fill-opacity="0.01"/>
</g>
<rect id="Rectangle" x="0.789062" width="217.958" height="152.402" rx="2.45132" fill="#F1F1F1"/>
<path id="Rectangle_2" d="M0.789062 130.69H218.747V149.951C218.747 151.305 217.649 152.402 216.296 152.402H3.24039C1.88656 152.402 0.789062 151.305 0.789062 149.951V130.69Z" fill="#F5F5F5"/>
<g id="Rectangle 2.1" filter="url(#filter1_d_2188_549)">
<path d="M73.0683 179.227C72.6815 178.84 72.7182 177.686 73.5586 177.056H145.978C146.818 177.686 146.888 178.596 146.468 179.227C146.034 179.878 143.877 180.021 142.756 179.997H76.7803C75.6597 180.021 73.6986 179.857 73.0683 179.227Z" fill="url(#paint0_linear_2188_549)"/>
</g>
<g id="Rectangle 2.2">
<path d="M84.9743 152.402C84.9743 152.402 82.8032 168.02 82.1727 169.701C81.5423 171.382 78.4608 173.203 77.9005 173.623C77.3401 174.044 75.379 175.444 74.5386 176.075C73.6982 176.705 72.6607 177.431 73.0679 178.246C73.418 178.946 75.6593 179.04 76.7799 179.016H113.83H142.756C143.876 179.04 146.117 178.946 146.468 178.246C146.875 177.431 145.837 176.705 144.997 176.075C144.156 175.444 142.195 174.044 141.635 173.623C141.075 173.203 137.993 171.382 137.363 169.701C136.732 168.02 134.561 152.402 134.561 152.402H113.83H84.9743Z" fill="#F5F5F5"/>
<path d="M84.9743 152.402C84.9743 152.402 82.8032 168.02 82.1727 169.701C81.5423 171.382 78.4608 173.203 77.9005 173.623C77.3401 174.044 75.379 175.444 74.5386 176.075C73.6982 176.705 72.6607 177.431 73.0679 178.246C73.418 178.946 75.6593 179.04 76.7799 179.016H113.83H142.756C143.876 179.04 146.117 178.946 146.468 178.246C146.875 177.431 145.837 176.705 144.997 176.075C144.156 175.444 142.195 174.044 141.635 173.623C141.075 173.203 137.993 171.382 137.363 169.701C136.732 168.02 134.561 152.402 134.561 152.402H113.83H84.9743Z" fill="url(#paint1_radial_2188_549)"/>
<path d="M84.9743 152.402C84.9743 152.402 82.8032 168.02 82.1727 169.701C81.5423 171.382 78.4608 173.203 77.9005 173.623C77.3401 174.044 75.379 175.444 74.5386 176.075C73.6982 176.705 72.6607 177.431 73.0679 178.246C73.418 178.946 75.6593 179.04 76.7799 179.016H113.83H142.756C143.876 179.04 146.117 178.946 146.468 178.246C146.875 177.431 145.837 176.705 144.997 176.075C144.156 175.444 142.195 174.044 141.635 173.623C141.075 173.203 137.993 171.382 137.363 169.701C136.732 168.02 134.561 152.402 134.561 152.402H113.83H84.9743Z" fill="url(#paint2_linear_2188_549)"/>
<path d="M84.9743 152.402C84.9743 152.402 82.8032 168.02 82.1727 169.701C81.5423 171.382 78.4608 173.203 77.9005 173.623C77.3401 174.044 75.379 175.444 74.5386 176.075C73.6982 176.705 72.6607 177.431 73.0679 178.246C73.418 178.946 75.6593 179.04 76.7799 179.016H113.83H142.756C143.876 179.04 146.117 178.946 146.468 178.246C146.875 177.431 145.837 176.705 144.997 176.075C144.156 175.444 142.195 174.044 141.635 173.623C141.075 173.203 137.993 171.382 137.363 169.701C136.732 168.02 134.561 152.402 134.561 152.402H113.83H84.9743Z" fill="url(#paint3_linear_2188_549)"/>
</g>
<rect id="Rectangle 3" x="8.1783" y="8.08992" width="203.18" height="114.652" stroke="#E1E1E1" stroke-width="0.210114"/>
<path id="Vector" d="M113.925 143.469C113.767 143.841 113.579 144.183 113.362 144.498C113.066 144.927 112.823 145.224 112.637 145.389C112.347 145.659 112.036 145.798 111.704 145.806C111.465 145.806 111.178 145.737 110.843 145.597C110.507 145.458 110.198 145.389 109.915 145.389C109.619 145.389 109.301 145.458 108.962 145.597C108.621 145.737 108.347 145.81 108.138 145.817C107.819 145.831 107.501 145.688 107.184 145.389C106.982 145.209 106.728 144.902 106.425 144.466C106.1 144.001 105.832 143.461 105.623 142.846C105.398 142.182 105.286 141.539 105.286 140.916C105.286 140.202 105.437 139.587 105.741 139.071C105.98 138.657 106.298 138.331 106.695 138.091C107.093 137.851 107.523 137.729 107.985 137.721C108.239 137.721 108.571 137.8 108.983 137.957C109.395 138.114 109.659 138.193 109.775 138.193C109.861 138.193 110.155 138.1 110.652 137.915C111.123 137.743 111.52 137.671 111.845 137.699C112.726 137.772 113.389 138.125 113.829 138.761C113.041 139.246 112.651 139.926 112.659 140.798C112.666 141.477 112.908 142.043 113.385 142.491C113.601 142.7 113.842 142.861 114.11 142.975C114.052 143.147 113.991 143.311 113.925 143.469ZM111.904 135.385C111.904 135.918 111.712 136.415 111.331 136.875C110.87 137.422 110.314 137.738 109.71 137.688C109.702 137.624 109.697 137.557 109.697 137.486C109.697 136.975 109.916 136.428 110.305 135.981C110.499 135.755 110.746 135.566 111.046 135.416C111.345 135.268 111.627 135.186 111.893 135.172C111.901 135.244 111.904 135.315 111.904 135.385V135.385Z" fill="#C8C8C8"/>
</g>
<defs>
<filter id="filter0_d_2188_549" x="24.2114" y="168.541" width="171.114" height="12.8282" filterUnits="userSpaceOnUse" color-interpolation-filters="sRGB">
<feFlood flood-opacity="0" result="BackgroundImageFix"/>
<feColorMatrix in="SourceAlpha" type="matrix" values="0 0 0 0 0 0 0 0 0 0 0 0 0 0 0 0 0 0 127 0" result="hardAlpha"/>
<feOffset/>
<feGaussianBlur stdDeviation="2.89186"/>
<feColorMatrix type="matrix" values="0 0 0 0 0 0 0 0 0 0 0 0 0 0 0 0 0 0 0.46 0"/>
<feBlend mode="normal" in2="BackgroundImageFix" result="effect1_dropShadow_2188_549"/>
<feBlend mode="normal" in="SourceGraphic" in2="effect1_dropShadow_2188_549" result="shape"/>
</filter>
<filter id="filter1_d_2188_549" x="72.4814" y="176.916" width="74.5881" height="3.64423" filterUnits="userSpaceOnUse" color-interpolation-filters="sRGB">
<feFlood flood-opacity="0" result="BackgroundImageFix"/>
<feColorMatrix in="SourceAlpha" type="matrix" values="0 0 0 0 0 0 0 0 0 0 0 0 0 0 0 0 0 0 127 0" result="hardAlpha"/>
<feOffset dy="0.210114"/>
<feGaussianBlur stdDeviation="0.175095"/>
<feColorMatrix type="matrix" values="0 0 0 0 0 0 0 0 0 0 0 0 0 0 0 0 0 0 0.38 0"/>
<feBlend mode="normal" in2="BackgroundImageFix" result="effect1_dropShadow_2188_549"/>
<feBlend mode="normal" in="SourceGraphic" in2="effect1_dropShadow_2188_549" result="shape"/>
</filter>
<linearGradient id="paint0_linear_2188_549" x1="109.768" y1="179.017" x2="109.768" y2="180.207" gradientUnits="userSpaceOnUse">
<stop offset="0.474551" stop-color="#D4D4D4"/>
<stop offset="1" stop-color="#B4B4B4"/>
</linearGradient>
<radialGradient id="paint1_radial_2188_549" cx="0" cy="0" r="1" gradientUnits="userSpaceOnUse" gradientTransform="translate(109.768 172.923) rotate(90) scale(19.0503 126.251)">
<stop stop-color="#DBDBDB"/>
<stop offset="1" stop-color="white" stop-opacity="0"/>
</radialGradient>
<linearGradient id="paint2_linear_2188_549" x1="109.768" y1="152.402" x2="109.768" y2="179.019" gradientUnits="userSpaceOnUse">
<stop stop-color="white" stop-opacity="0"/>
<stop offset="0.541436" stop-color="white"/>
<stop offset="1" stop-color="white" stop-opacity="0"/>
</linearGradient>
<linearGradient id="paint3_linear_2188_549" x1="109.768" y1="152.402" x2="109.768" y2="171.032" gradientUnits="userSpaceOnUse">
<stop stop-color="#D7D7D7"/>
<stop offset="1" stop-color="white" stop-opacity="0"/>
</linearGradient>
</defs>
</svg>
