<svg width="215" height="180" viewBox="0 0 215 180" fill="none" xmlns="http://www.w3.org/2000/svg">
<g id="Body Details">
<path id="Base Bottom" d="M132.978 177.385H82.2036V179.455C82.2036 179.515 82.2524 179.564 82.3126 179.564H82.8574V179.782C82.8574 179.902 82.9549 180 83.0753 180H89.177C89.2973 180 89.3949 179.902 89.3949 179.782V179.564H125.678V179.782C125.678 179.902 125.776 180 125.896 180H131.998C132.118 180 132.216 179.902 132.216 179.782V179.564H132.978V177.385Z" fill="#0B0921"/>
<rect id="Base Top" x="82.2036" y="146.44" width="50.7749" height="30.9443" fill="#36363E"/>
<path id="Frame" d="M0.811035 3.26828C0.811035 1.46299 2.27451 -0.000488281 4.0798 -0.000488281H210.993C212.798 -0.000488281 214.262 1.46299 214.262 3.26828V125.084H0.811035V3.26828Z" fill="#36363E"/>
<g id="Screen Bottom Base" filter="url(#filter0_i_2188_704)">
<path d="M0.811035 124.867H214.262V143.172C214.262 144.977 212.798 146.441 210.993 146.441H4.0798C2.27451 146.441 0.811035 144.977 0.811035 143.172V124.867Z" fill="#4D4D56"/>
</g>
<rect id="Display Black Border" x="5.93311" y="5.12061" width="203.208" height="114.516" rx="0.326877" fill="#0B0921"/>
<ellipse id="Camera" cx="107.536" cy="2.55222" rx="0.971168" ry="0.971167" fill="#4D4D56"/>
</g>
<defs>
<filter id="filter0_i_2188_704" x="0.811035" y="124.758" width="213.451" height="21.6827" filterUnits="userSpaceOnUse" color-interpolation-filters="sRGB">
<feFlood flood-opacity="0" result="BackgroundImageFix"/>
<feBlend mode="normal" in="SourceGraphic" in2="BackgroundImageFix" result="shape"/>
<feColorMatrix in="SourceAlpha" type="matrix" values="0 0 0 0 0 0 0 0 0 0 0 0 0 0 0 0 0 0 127 0" result="hardAlpha"/>
<feOffset dy="-0.108959"/>
<feGaussianBlur stdDeviation="0.0544794"/>
<feComposite in2="hardAlpha" operator="arithmetic" k2="-1" k3="1"/>
<feColorMatrix type="matrix" values="0 0 0 0 0 0 0 0 0 0 0 0 0 0 0 0 0 0 0.12 0"/>
<feBlend mode="normal" in2="shape" result="effect1_innerShadow_2188_704"/>
</filter>
</defs>
</svg>
