<svg width="126" height="108" viewBox="0 0 126 108" fill="none" xmlns="http://www.w3.org/2000/svg">
<path opacity="0.3" fill-rule="evenodd" clip-rule="evenodd" d="M95.6476 107.113C103.196 110.393 106.027 103.521 106.027 103.521L126 3.87192C125.843 -2.84422 116.721 1.2167 116.721 1.2167L4.90475 44.7935C4.90475 44.7935 -0.442318 46.6678 0.0294816 49.9477C0.501281 53.2277 4.74748 54.7896 4.74748 54.7896L32.8982 64.1609C32.8982 64.1609 41.3906 91.8064 43.1205 97.1169C44.6932 102.271 46.1086 102.427 46.1086 102.427C47.6813 103.052 49.0967 101.959 49.0967 101.959L67.3396 85.5589L95.6476 107.113ZM100.523 21.5198C100.523 21.5198 104.455 19.1769 104.297 21.5198C104.297 21.5198 104.927 21.8322 102.882 24.0188C100.995 25.8931 56.4884 65.5651 50.5123 70.8756C50.0405 71.188 49.726 71.6565 49.726 72.2813L47.996 86.9631C47.6815 88.5249 45.637 88.6811 45.1652 87.2754L37.7737 63.2223C37.4592 62.2852 37.7737 61.1918 38.7173 60.5671L100.523 21.5198Z" fill="white"/>
</svg>
