<svg width="16" height="16" viewBox="0 0 16 16" fill="none" xmlns="http://www.w3.org/2000/svg">
<g id="Frame">
<path id="Vector" d="M14 7.99992V6.66659C14 5.78253 13.6488 4.93468 13.0237 4.30956C12.3986 3.68444 11.5507 3.33325 10.6667 3.33325H5.33333C4.44928 3.33325 3.60143 3.68444 2.97631 4.30956C2.35119 4.93468 2 5.78253 2 6.66659C2 7.55064 2.35119 8.39849 2.97631 9.02361C3.60143 9.64873 4.44928 9.99992 5.33333 9.99992H8M13.416 12.7459C13.6039 12.5605 13.7533 12.3397 13.8555 12.0963C13.9577 11.8529 14.0106 11.5916 14.0113 11.3276C14.0121 11.0637 13.9605 10.8021 13.8597 10.5582C13.7588 10.3142 13.6107 10.0926 13.4237 9.90615C13.2368 9.71972 13.0148 9.57214 12.7706 9.47192C12.5264 9.3717 12.2647 9.32083 12.0007 9.32223C11.7367 9.32363 11.4756 9.37729 11.2325 9.4801C10.9893 9.58291 10.7689 9.73284 10.584 9.92125C10.2144 10.2978 10.0086 10.8052 10.0114 11.3328C10.0142 11.8605 10.2254 12.3656 10.599 12.7382C10.9726 13.1109 11.4783 13.3208 12.0059 13.3222C12.5336 13.3236 13.0404 13.1165 13.416 12.7459ZM13.416 12.7459L14.6667 13.9999" stroke="black" stroke-width="1.5" stroke-linecap="round" stroke-linejoin="round"/>
</g>
</svg>
