<svg width="120" height="120" viewBox="0 0 120 120" fill="none" xmlns="http://www.w3.org/2000/svg">
<path d="M44.473 31.3919C44.1238 31.1849 43.726 31.0739 43.3201 31.0704C42.9141 31.0669 42.5145 31.1708 42.1617 31.3717C41.809 31.5726 41.5157 31.8633 41.3116 32.2143C41.1076 32.5652 41.0001 32.964 41 33.3699V86.6302C41.0001 87.0362 41.1076 87.4349 41.3116 87.7859C41.5157 88.1368 41.809 88.4275 42.1617 88.6284C42.5145 88.8293 42.9141 88.9333 43.3201 88.9298C43.726 88.9262 44.1238 88.8153 44.473 88.6082L89.4112 61.9781C89.7544 61.7744 90.0387 61.485 90.2362 61.1382C90.4336 60.7914 90.5375 60.3992 90.5375 60.0001C90.5375 59.601 90.4336 59.2088 90.2362 58.862C90.0387 58.5152 89.7544 58.2257 89.4112 58.0221L44.473 31.3919Z" fill="white" stroke="white" stroke-width="1.5" stroke-linecap="round" stroke-linejoin="round"/>
<circle cx="60" cy="60" r="59" stroke="white" stroke-width="2"/>
</svg>
